Coordinates
version=1
nRows=6
nColumns=36
inDegrees=yes

Units are S.I. units (second, meters, Newtons, ...)
If the header above contains a line with 'inDegrees', this indicates whether rotational values are in degrees (yes) or radians (no).

endheader
time	pelvis_tilt	pelvis_list	pelvis_rotation	pelvis_tx	pelvis_ty	pelvis_tz	hip_flexion_r	hip_adduction_r	hip_rotation_r	knee_angle_r	knee_angle_r_beta	ankle_angle_r	subtalar_angle_r	mtp_angle_r	hip_flexion_l	hip_adduction_l	hip_rotation_l	knee_angle_l	knee_angle_l_beta	ankle_angle_l	subtalar_angle_l	mtp_angle_l	lumbar_extension	lumbar_bending	lumbar_rotation	arm_flex_r	arm_add_r	arm_rot_r	elbow_flex_r	pro_sup_r	arm_flex_l	arm_add_l	arm_rot_l	elbow_flex_l	pro_sup_l
      0.00000000	     14.86881902	     -1.45685194	      0.97734063	     -0.58036292	      0.57588706	     -0.61318822	     75.76876576	     -5.35530508	      3.58221599	     99.77808593	      1.74145612	     15.73063670	      0.14677447	     -4.69807868	     77.82055215	     -6.10834567	      4.13334364	     99.55408467	      1.73754656	     12.19997554	      1.07602012	     -4.69807868	    -22.06541004	      2.08210834	      2.44747743	     -5.92541213	     -5.09783804	     -3.39235694	    115.78062616	    111.43790460	     -2.64359337	     -4.02885858	      2.63412692	    106.67476485	    109.39672035
      0.01000000	     14.87907292	     -1.45878099	      0.98212335	     -0.58036869	      0.57589714	     -0.61316618	     75.76206419	     -5.36033015	      3.56592311	     99.78631815	      1.74159980	     15.71031225	      0.10810432	     -5.13049782	     77.81243055	     -6.10786428	      4.13739854	     99.55671173	      1.73759241	     12.18214007	      1.04491492	     -5.13049782	    -22.07965795	      2.07739652	      2.45431358	     -5.93385250	     -5.08925450	     -3.39452108	    115.76287468	    111.45860590	     -2.66170914	     -4.01220577	      2.61414165	    106.68483397	    109.41511414
      0.02000000	     14.89666536	     -1.45469764	      0.98968764	     -0.58039743	      0.57591007	     -0.61317855	     75.74636164	     -5.37020393	      3.57234471	     99.79921285	      1.74182486	     15.77962505	      0.20477959	     -5.58706011	     77.79267977	     -6.09777416	      4.14855541	     99.55424628	      1.73754938	     12.22927295	      1.11386171	     -5.58706011	    -22.13264304	      2.10386430	      2.47491905	     -5.93654261	     -5.06426643	     -3.40548696	    115.80137071	    111.46959033	     -2.66858843	     -4.00107333	      2.62101448	    106.73044002	    109.04338748
      0.03000000	     14.94585169	     -1.41831686	      0.96976100	     -0.58050341	      0.57598381	     -0.61315880	     75.70089295	     -5.35920507	      3.62324743	     99.78215752	      1.74152718	     15.70644349	      0.12394000	     -5.73264464	     77.72512611	     -6.10182501	      4.10723590	     99.53392243	      1.73719466	     12.16317078	      1.03688929	     -5.73264464	    -22.25892122	      2.07929333	      2.40728331	     -5.87133197	     -5.05981246	     -3.31114507	    115.81193122	    111.47052789	     -2.72508397	     -4.00678316	      2.53756020	    106.79726924	    109.26111637
      0.04000000	     14.94865258	     -1.40287700	      0.98445288	     -0.58049098	      0.57597078	     -0.61315691	     75.69733262	     -5.38975696	      3.65191348	     99.80903563	      1.74199630	     16.07803347	      0.64546023	     -5.84296273	     77.71663660	     -6.09001471	      4.12332301	     99.55000214	      1.73747531	     12.48275696	      1.52490402	     -5.84296273	    -22.28105546	      2.07401628	      2.46184147	     -5.96319484	     -5.04109239	     -3.34694782	    115.84165462	    111.12815947	     -2.67718038	     -4.03628197	      2.59112337	    106.76732938	    108.91214765
      0.05000000	     15.01335624	     -1.36975224	      0.96167957	     -0.58062367	      0.57609518	     -0.61308777	     75.64498651	     -5.36351624	      3.67386275	     99.78855688	      1.74163887	     15.72825410	      0.16049324	     -5.99020451	     77.63272386	     -6.10511906	      4.04847332	     99.51744167	      1.73690702	     12.18766754	      1.07359174	     -5.99020451	    -22.40100714	      2.02825795	      2.39562870	     -5.86150854	     -5.00825955	     -3.30645945	    115.82552534	    111.53932049	     -2.72452617	     -4.05364292	      2.47973037	    106.81353239	    109.26952747
